<?xml version="1.0" encoding="UTF-8" standalone="no"?>
<svg
   xmlns:dc="http://purl.org/dc/elements/1.1/"
   xmlns:cc="http://creativecommons.org/ns#"
   xmlns:rdf="http://www.w3.org/1999/02/22-rdf-syntax-ns#"
   xmlns:svg="http://www.w3.org/2000/svg"
   xmlns="http://www.w3.org/2000/svg"
   xmlns:sodipodi="http://sodipodi.sourceforge.net/DTD/sodipodi-0.dtd"
   xmlns:inkscape="http://www.inkscape.org/namespaces/inkscape"
   version="1.1"
   id="svg2"
   xml:space="preserve"
   width="642.66669"
   height="172"
   viewBox="0 0 642.66669 172"
   sodipodi:docname="nashcom-kurve.eps"><metadata
     id="metadata8"><rdf:RDF><cc:Work
         rdf:about=""><dc:format>image/svg+xml</dc:format><dc:type
           rdf:resource="http://purl.org/dc/dcmitype/StillImage" /></cc:Work></rdf:RDF></metadata><defs
     id="defs6" /><sodipodi:namedview
     pagecolor="#ffffff"
     bordercolor="#666666"
     borderopacity="1"
     objecttolerance="10"
     gridtolerance="10"
     guidetolerance="10"
     inkscape:pageopacity="0"
     inkscape:pageshadow="2"
     inkscape:window-width="640"
     inkscape:window-height="480"
     id="namedview4" /><g
     id="g10"
     inkscape:groupmode="layer"
     inkscape:label="ink_ext_XXXXXX"
     transform="matrix(1.3333333,0,0,-1.3333333,0,172)"><g
       id="g12"
       transform="scale(0.1)"><path
         d="M 70.3555,593.313 H 227.918 l -5.527,439.527 h 1.843 L 449.066,593.313 H 661.918 V 1236.48 H 505.273 l 2.766,-436.765 h -1.844 L 288.734,1236.48 H 70.3555 V 593.313"
         style="fill:#231f20;fill-opacity:1;fill-rule:evenodd;stroke:none"
         id="path14" /><path
         d="m 1231.36,593.313 c -7.38,37.781 -9.22,75.558 -9.22,113.339 V 885.41 c 0,146.51 -105.97,199.03 -228.519,199.03 -70.949,0 -132.683,-10.14 -191.656,-34.09 l 2.762,-112.42 c 46.074,25.8 99.519,35.937 152.961,35.937 59.892,0 108.732,-17.508 109.652,-82.929 -21.2,3.687 -50.68,6.449 -77.402,6.449 -88.458,0 -247.868,-17.508 -247.868,-164.016 0,-104.121 84.774,-151.23 179.684,-151.23 68.184,0 114.256,26.836 152.036,86.73 h 1.84 c 0,-24.879 2.76,-49.758 3.69,-75.558 z M 896.875,745.352 c 0,46.07 44.227,63.578 100.434,63.578 24.881,0 48.831,-1.84 70.031,-2.762 0,-56.211 -39.63,-113.34 -102.281,-113.34 -38.7,0 -68.184,19.352 -68.184,52.524"
         style="fill:#231f20;fill-opacity:1;fill-rule:evenodd;stroke:none"
         id="path16" /><path
         d="m 1298.61,605.293 c 48.83,-15.781 99.51,-23.152 174.15,-23.152 108.73,0 223.91,32.363 223.91,160.445 0,182.441 -246.95,123.473 -246.95,198.109 0,26.723 40.55,33.172 76.48,33.172 41.47,0 93.99,-11.058 129,-32.25 l 12.9,115.183 c -53.44,21.19 -111.49,27.64 -168.62,27.64 -95.83,0 -204.56,-45.15 -204.56,-155.721 0,-173.235 235.89,-116.102 235.89,-197.192 0,-33.172 -33.17,-38.699 -67.27,-38.699 -59.89,0 -117.02,16.586 -155.72,33.172 l -9.21,-120.707"
         style="fill:#231f20;fill-opacity:1;fill-rule:evenodd;stroke:none"
         id="path18" /><path
         d="m 1766.69,593.313 h 165.86 v 202.714 c 0,103.203 35.01,150.196 103.2,150.196 45.15,0 76.47,-30.407 76.47,-120.707 V 593.313 h 165.86 v 299.468 c 0,99.516 -52.52,191.659 -183.36,191.659 -71.87,0 -124.4,-32.25 -160.33,-82.01 h -1.84 v 281.96 H 1766.69 V 593.313"
         style="fill:#231f20;fill-opacity:1;fill-rule:evenodd;stroke:none"
         id="path20" /><path
         d="m 2608.87,1236.48 h -171.39 l 23.96,-424.785 h 123.47 z m -163.1,-643.167 h 154.8 v 149.273 h -154.8 V 593.313"
         style="fill:#244ba6;fill-opacity:1;fill-rule:evenodd;stroke:none"
         id="path22" /><path
         d="m 3304.54,742.586 c -46.99,-18.426 -104.12,-33.172 -160.33,-33.172 -125.32,0 -214.69,76.481 -214.69,202.719 0,119.787 79.24,208.247 200.87,208.247 58.97,0 112.41,-14.75 167.7,-45.15 l 13.82,139.13 c -61.74,18.43 -125.32,33.18 -190.74,33.18 -211.93,0 -368.57,-111.5 -368.57,-335.407 0,-243.262 198.11,-329.992 369.49,-329.992 87.54,0 141.91,13.937 190.74,25.914 l -8.29,134.531"
         style="fill:#244ba6;fill-opacity:1;fill-rule:evenodd;stroke:none"
         id="path24" /><path
         d="m 3627.95,582.141 c 158.49,0 279.19,92.257 279.19,250.746 0,159.41 -120.7,251.553 -279.19,251.553 -158.49,0 -279.2,-92.143 -279.2,-251.553 0,-158.489 120.71,-250.746 279.2,-250.746 z m 0,116.214 c -76.48,0 -107.81,63.583 -107.81,134.532 0,71.871 31.33,135.453 107.81,135.453 76.48,0 107.81,-63.582 107.81,-135.453 0,-70.949 -31.33,-134.532 -107.81,-134.532"
         style="fill:#244ba6;fill-opacity:1;fill-rule:evenodd;stroke:none"
         id="path26" /><path
         d="m 3976.24,593.313 h 165.86 v 202.714 c 0,103.203 35.01,150.196 93.99,150.196 46.99,0 66.34,-40.543 66.34,-94.907 V 593.313 h 165.86 v 202.714 c 0,103.203 35.01,150.196 93.98,150.196 47,0 66.35,-40.543 66.35,-94.907 V 593.313 h 165.86 v 282.882 c 0,129.925 -31.33,208.245 -169.55,208.245 -68.18,0 -131.76,-27.64 -170.46,-92.143 -25.81,62.653 -82.01,92.143 -150.2,92.143 -75.56,0 -141.9,-30.4 -175.07,-99.518 h -1.84 v 88.458 H 3976.24 V 593.313"
         style="fill:#244ba6;fill-opacity:1;fill-rule:evenodd;stroke:none"
         id="path28" /><path
         d="m 293.426,415.121 c -16.422,8.668 -54.289,11.859 -72.992,11.859 -98.539,0 -160.5785,-67.968 -160.5785,-164.683 0,-98.535 60.2185,-164.7423 160.5785,-164.7423 20.07,0 55.656,3.1953 72.992,13.7423 l -1.824,27.375 c -18.25,-10.949 -50.184,-13.688 -71.168,-13.688 -83.938,0 -129.102,57.024 -129.102,137.313 0,78.922 46.531,137.316 129.102,137.316 22.355,0 51.097,-3.195 71.168,-13.687 l 1.824,29.195"
         style="fill:#231f20;fill-opacity:1;fill-rule:evenodd;stroke:none"
         id="path30" /><path
         d="m 356.379,219.418 c 0,-63.414 33.301,-121.8633 108.57,-121.8633 75.274,0 108.574,58.4493 108.574,121.8633 0,63.406 -33.3,121.801 -108.574,121.801 -75.269,0 -108.57,-58.395 -108.57,-121.801 z m 31.476,0 c 0,53.828 26.915,97.164 77.094,97.164 50.184,0 77.098,-43.336 77.098,-97.164 0,-53.832 -26.914,-97.172 -77.098,-97.172 -50.179,0 -77.094,43.34 -77.094,97.172"
         style="fill:#231f20;fill-opacity:1;fill-rule:evenodd;stroke:none"
         id="path32" /><path
         d="m 937.566,103.086 v 160.125 c 0,45.16 -26.457,78.008 -73.449,78.008 -36.492,0 -63.863,-21.899 -74.355,-49.27 h -0.914 c -7.297,40.602 -41.055,49.27 -61.586,49.27 -49.723,0 -63.41,-29.196 -72.535,-45.164 l -0.911,0.457 v 39.234 h -27.828 c 1.825,-18.703 1.825,-36.953 1.825,-54.742 V 103.086 h 28.742 V 231.73 c 0,57.938 31.019,84.852 62.496,84.852 36.953,0 49.269,-26 49.269,-58.848 V 103.086 h 28.739 V 231.73 c 0,57.938 31.019,84.852 62.5,84.852 36.949,0 49.265,-26 49.265,-58.848 V 103.086 h 28.742"
         style="fill:#231f20;fill-opacity:1;fill-rule:evenodd;stroke:none"
         id="path34" /><path
         d="m 1317.57,103.086 v 160.125 c 0,45.16 -26.45,78.008 -73.44,78.008 -36.5,0 -63.87,-21.899 -74.36,-49.27 h -0.91 c -7.3,40.602 -41.06,49.27 -61.59,49.27 -49.72,0 -63.41,-29.196 -72.54,-45.164 l -0.91,0.457 v 39.234 H 1006 c 1.82,-18.703 1.82,-36.953 1.82,-54.742 V 103.086 h 28.74 V 231.73 c 0,57.938 31.02,84.852 62.5,84.852 36.95,0 49.27,-26 49.27,-58.848 V 103.086 h 28.74 V 231.73 c 0,57.938 31.02,84.852 62.5,84.852 36.95,0 49.27,-26 49.27,-58.848 V 103.086 h 28.73"
         style="fill:#231f20;fill-opacity:1;fill-rule:evenodd;stroke:none"
         id="path36" /><path
         d="m 1569.39,335.746 h -28.73 V 207.098 c 0,-38.778 -16.43,-84.852 -68.89,-84.852 -39.69,0 -55.2,28.285 -55.2,72.082 v 141.418 h -28.74 V 187.023 c 0,-51.089 21.9,-89.4683 79.38,-89.4683 48.35,0 65.69,26.0623 75.27,47.0473 h 0.91 v -41.516 h 27.83 c -1.83,18.707 -1.83,36.953 -1.83,54.742 v 177.918"
         style="fill:#231f20;fill-opacity:1;fill-rule:evenodd;stroke:none"
         id="path38" /><path
         d="m 1641.47,103.086 h 28.74 V 231.73 c 0,38.778 16.43,84.852 68.89,84.852 39.69,0 55.2,-28.281 55.2,-72.074 V 103.086 h 28.74 v 148.719 c 0,51.093 -21.9,89.414 -79.38,89.414 -48.36,0 -65.69,-26.004 -75.27,-46.989 h -0.91 v 41.516 h -27.83 c 1.82,-18.703 1.82,-36.953 1.82,-54.742 V 103.086"
         style="fill:#231f20;fill-opacity:1;fill-rule:evenodd;stroke:none"
         id="path40" /><path
         d="m 1895.12,103.086 h 28.74 v 232.66 h -28.74 z m 28.74,333.019 h -28.74 v -38.32 h 28.74 v 38.32"
         style="fill:#231f20;fill-opacity:1;fill-rule:evenodd;stroke:none"
         id="path42" /><path
         d="m 2150.13,332.094 c -8.22,2.738 -28.29,9.125 -56.11,9.125 -68.89,0 -114.96,-50.18 -114.96,-121.801 0,-64.781 36.49,-121.8633 111.31,-121.8633 21.9,0 40.14,1.3672 59.76,8.2693 l -2.74,26.914 c -17.34,-6.386 -34.21,-10.492 -52.46,-10.492 -52.47,0 -84.4,44.254 -84.4,97.172 0,56.566 31.48,97.164 87.59,97.164 15.51,0 34.22,-5.016 49.73,-11.859 l 2.28,27.371"
         style="fill:#231f20;fill-opacity:1;fill-rule:evenodd;stroke:none"
         id="path44" /><path
         d="m 2332.6,103.086 h 28.29 c -2.28,15.969 -2.28,30.109 -2.28,48.812 v 102.645 c 0,60.672 -24.18,86.676 -81.66,86.676 -20.53,0 -50.64,-7.297 -68.43,-15.969 v -27.824 c 21.44,13.683 44.25,19.156 68.43,19.156 38.77,0 52.92,-20.07 52.92,-59.762 v -11.859 h -5.48 c -60.21,0 -143.24,-3.648 -143.24,-81.66 0,-20.985 10.49,-65.7463 76.64,-65.7463 28.74,0 61.13,15.1133 73.9,42.9413 h 0.91 z m -2.73,103.102 c 0,-25.094 -1.37,-83.942 -68.89,-83.942 -26.46,0 -48.35,11.406 -48.35,41.969 0,51.098 59.3,56.113 109.02,56.113 h 8.22 v -14.14"
         style="fill:#231f20;fill-opacity:1;fill-rule:evenodd;stroke:none"
         id="path46" /><path
         d="m 2527.4,335.746 h -52.92 v 66.145 l -28.74,-10.036 v -56.109 h -45.62 v -24.637 h 45.62 V 175.164 c 0,-42.426 1.82,-77.6093 52.92,-77.6093 14.14,0 28.28,3.6523 35.12,6.4453 l -1.82,23.723 c -8.21,-3.192 -15.51,-5.477 -26.46,-5.477 -23.27,0 -31.02,17.336 -31.02,38.32 v 150.543 h 52.92 v 24.637"
         style="fill:#231f20;fill-opacity:1;fill-rule:evenodd;stroke:none"
         id="path48" /><path
         d="m 2578.95,103.086 h 28.74 v 232.66 h -28.74 z m 28.74,333.019 h -28.74 v -38.32 h 28.74 v 38.32"
         style="fill:#231f20;fill-opacity:1;fill-rule:evenodd;stroke:none"
         id="path50" /><path
         d="m 2662.43,219.418 c 0,-63.414 33.3,-121.8633 108.57,-121.8633 75.28,0 108.58,58.4493 108.58,121.8633 0,63.406 -33.3,121.801 -108.58,121.801 -75.27,0 -108.57,-58.395 -108.57,-121.801 z m 31.48,0 c 0,53.828 26.91,97.164 77.09,97.164 50.19,0 77.1,-43.336 77.1,-97.164 0,-53.832 -26.91,-97.172 -77.1,-97.172 -50.18,0 -77.09,43.34 -77.09,97.172"
         style="fill:#231f20;fill-opacity:1;fill-rule:evenodd;stroke:none"
         id="path52" /><path
         d="m 2933.87,103.086 h 28.74 V 231.73 c 0,38.778 16.42,84.852 68.88,84.852 39.69,0 55.2,-28.281 55.2,-72.074 V 103.086 h 28.74 v 148.719 c 0,51.093 -21.9,89.414 -79.38,89.414 -48.35,0 -65.69,-26.004 -75.27,-46.989 h -0.91 v 41.516 h -27.83 c 1.83,-18.703 1.83,-36.953 1.83,-54.742 V 103.086"
         style="fill:#231f20;fill-opacity:1;fill-rule:evenodd;stroke:none"
         id="path54" /><path
         d="m 3305.66,111.297 c 16.88,-7.297 41.06,-13.7423 72.08,-13.7423 49.27,0 104.47,25.6053 104.47,89.9293 0,93.059 -145.98,93.52 -145.98,157.383 0,41.059 36.04,54.746 68.88,54.746 21.44,0 43.8,-4.105 57.94,-11.863 l 5.02,28.742 c -21.9,8.211 -46.99,10.488 -62.5,10.488 -56.12,0 -100.82,-31.933 -100.82,-83.023 0,-83.484 145.98,-91.238 145.98,-153.738 0,-45.164 -32.39,-65.235 -71.62,-65.235 -29.66,0 -51.55,6.844 -70.25,18.704 l -3.2,-32.391"
         style="fill:#231f20;fill-opacity:1;fill-rule:evenodd;stroke:none"
         id="path56" /><path
         d="m 3704.83,335.746 h -30.11 l -67.06,-193.883 h -0.91 l 0.45,-0.457 -65.23,194.34 h -31.48 l 82.57,-235.453 -5.93,-20.5313 c -9.12,-30.1054 -17.33,-50.6367 -41.97,-50.6367 -10.49,0 -15.96,1.8242 -21.44,3.6523 l -2.74,-24.63667 c 9.58,-2.28125 20.53,-3.64844 31.02,-3.64844 32.39,0 48.82,31.93361 59.77,63.86721 l 93.06,267.3866"
         style="fill:#231f20;fill-opacity:1;fill-rule:evenodd;stroke:none"
         id="path58" /><path
         d="m 3724.45,108.559 c 20.52,-8.266 42.88,-11.0043 65.23,-11.0043 35.12,0 81.2,16.9373 81.2,66.2073 0,76.179 -114.5,70.707 -114.5,114.047 0,29.652 20.53,38.773 50.18,38.773 15.96,0 36.49,-4.105 51.55,-10.949 l 2.74,25.094 c -20.53,7.753 -45.17,10.492 -57.48,10.492 -38.33,0 -75.73,-17.336 -75.73,-63.41 0,-67.516 111.76,-58.852 111.76,-114.047 0,-26.461 -24.17,-41.516 -51.54,-41.516 -22.36,0 -43.34,5.93 -60.68,14.598 l -2.73,-28.285"
         style="fill:#231f20;fill-opacity:1;fill-rule:evenodd;stroke:none"
         id="path60" /><path
         d="m 4022.79,335.746 h -52.91 v 66.145 l -28.75,-10.036 v -56.109 h -45.61 v -24.637 h 45.61 V 175.164 c 0,-42.426 1.83,-77.6093 52.92,-77.6093 14.14,0 28.29,3.6523 35.13,6.4453 l -1.82,23.723 c -8.22,-3.192 -15.52,-5.477 -26.47,-5.477 -23.26,0 -31.01,17.336 -31.01,38.32 v 150.543 h 52.91 v 24.637"
         style="fill:#231f20;fill-opacity:1;fill-rule:evenodd;stroke:none"
         id="path62" /><path
         d="m 4230.36,139.582 c -13.68,-8.668 -44.25,-17.336 -65.23,-17.336 -50.18,0 -76.65,39.688 -76.65,88.961 h 159.22 v 14.594 c 0,62.5 -26.92,115.418 -92.61,115.418 -58.85,0 -98.08,-50.637 -98.08,-121.801 0,-69.797 28.74,-121.8633 105.83,-121.8633 21.45,0 47.45,4.5623 67.52,12.8323 z m -141.88,96.254 c 0,38.324 26.01,80.746 68.43,80.746 42.89,0 59.31,-40.144 59.31,-80.746 h -127.74"
         style="fill:#231f20;fill-opacity:1;fill-rule:evenodd;stroke:none"
         id="path64" /><path
         d="m 4612.19,103.086 v 160.125 c 0,45.16 -26.46,78.008 -73.44,78.008 -36.5,0 -63.87,-21.899 -74.36,-49.27 h -0.91 c -7.3,40.602 -41.06,49.27 -61.59,49.27 -49.73,0 -63.41,-29.196 -72.53,-45.164 l -0.92,0.457 v 39.234 h -27.83 c 1.83,-18.703 1.83,-36.953 1.83,-54.742 V 103.086 h 28.74 V 231.73 c 0,57.938 31.02,84.852 62.5,84.852 36.95,0 49.27,-26 49.27,-58.848 V 103.086 h 28.73 V 231.73 c 0,57.938 31.03,84.852 62.5,84.852 36.96,0 49.27,-26 49.27,-58.848 V 103.086 h 28.74"
         style="fill:#231f20;fill-opacity:1;fill-rule:evenodd;stroke:none"
         id="path66" /><path
         d="m 4661.92,108.559 c 20.53,-8.266 42.88,-11.0043 65.23,-11.0043 35.13,0 81.21,16.9373 81.21,66.2073 0,76.179 -114.51,70.707 -114.51,114.047 0,29.652 20.53,38.773 50.18,38.773 15.97,0 36.5,-4.105 51.55,-10.949 l 2.74,25.094 c -20.53,7.753 -45.16,10.492 -57.48,10.492 -38.32,0 -75.73,-17.336 -75.73,-63.41 0,-67.516 111.77,-58.852 111.77,-114.047 0,-26.461 -24.18,-41.516 -51.55,-41.516 -22.35,0 -43.34,5.93 -60.67,14.598 l -2.74,-28.285"
         style="fill:#231f20;fill-opacity:1;fill-rule:evenodd;stroke:none"
         id="path68" /></g></g></svg>
